<?xml version="1.0" standalone="no"?><!DOCTYPE svg PUBLIC "-//W3C//DTD SVG 1.1//EN" "http://www.w3.org/Graphics/SVG/1.1/DTD/svg11.dtd"><svg t="1618970208090" class="icon" viewBox="0 0 1024 1024" version="1.1" xmlns="http://www.w3.org/2000/svg" p-id="2198" xmlns:xlink="http://www.w3.org/1999/xlink" width="200" height="200"><defs><style type="text/css"></style></defs><path d="M992 192H832V32c0-19.2-12.8-32-32-32H32C12.8 0 0 12.8 0 32v768c0 19.2 12.8 32 32 32H192v160c0 19.2 12.8 32 32 32h768c19.2 0 32-12.8 32-32v-768c0-19.2-12.8-32-32-32zM64 64h704v704H64V64z m896 896H256v-128h544c19.2 0 32-12.8 32-32V256h128v704z" fill="#bfbfbf" p-id="2199"></path><path d="M576 192H256c-19.2 0-32 12.8-32 32s12.8 32 32 32h320c19.2 0 32-12.8 32-32S595.2 192 576 192zM576 384H256c-19.2 0-32 12.8-32 32s12.8 32 32 32h320c19.2 0 32-12.8 32-32S595.2 384 576 384zM576 576H256c-19.2 0-32 12.8-32 32s12.8 32 32 32h320c19.2 0 32-12.8 32-32S595.2 576 576 576z" fill="#bfbfbf" p-id="2200"></path></svg>